<svg width="27" height="38" viewBox="0 0 27 38" fill="none" xmlns="http://www.w3.org/2000/svg">
<g id="Union">
<mask id="path-1-inside-1_1_116" fill="white">
<path fill-rule="evenodd" clip-rule="evenodd" d="M0.127792 20.1323L13.5418 37.8555L26.8757 20.0719L17.972 20.092L17.9285 0.858927L8.58149 0.880051L8.62495 20.1131L0.127792 20.1323Z"/>
</mask>
<path fill-rule="evenodd" clip-rule="evenodd" d="M0.127792 20.1323L13.5418 37.8555L26.8757 20.0719L17.972 20.092L17.9285 0.858927L8.58149 0.880051L8.62495 20.1131L0.127792 20.1323Z" fill="#F5F5F5"/>
<path d="M13.5418 37.8555L11.1497 39.666L13.5531 42.8415L15.9421 39.6552L13.5418 37.8555ZM0.127792 20.1323L0.121012 17.1323L-5.89489 17.1459L-2.26431 21.9428L0.127792 20.1323ZM26.8757 20.0719L29.2759 21.8715L32.8848 17.0583L26.8689 17.0719L26.8757 20.0719ZM17.972 20.092L14.972 20.0988L14.9787 23.0988L17.9787 23.092L17.972 20.092ZM17.9285 0.858927L20.9285 0.852148L20.9217 -2.14784L17.9217 -2.14106L17.9285 0.858927ZM8.58149 0.880051L8.57471 -2.11994L5.57472 -2.11316L5.5815 0.88683L8.58149 0.880051ZM8.62495 20.1131L8.63173 23.1131L11.6317 23.1063L11.6249 20.1063L8.62495 20.1131ZM15.9339 36.0451L2.51989 18.3218L-2.26431 21.9428L11.1497 39.666L15.9339 36.0451ZM24.4754 18.2722L11.1416 36.0559L15.9421 39.6552L29.2759 21.8715L24.4754 18.2722ZM17.9787 23.092L26.8824 23.0719L26.8689 17.0719L17.9652 17.092L17.9787 23.092ZM14.9285 0.865707L14.972 20.0988L20.972 20.0852L20.9285 0.852148L14.9285 0.865707ZM8.58827 3.88004L17.9353 3.85892L17.9217 -2.14106L8.57471 -2.11994L8.58827 3.88004ZM11.6249 20.1063L11.5815 0.873271L5.5815 0.88683L5.62496 20.1199L11.6249 20.1063ZM0.134572 23.1323L8.63173 23.1131L8.61817 17.1131L0.121012 17.1323L0.134572 23.1323Z" fill="#F5F5F5" mask="url(#path-1-inside-1_1_116)"/>
</g>
</svg>
